<svg height="512" viewBox="0 0 512 512" width="512" xmlns="http://www.w3.org/2000/svg"><path d="m24 254.627a25.459 25.459 0 0 0 11.361 21.228l40.2 26.8a8 8 0 0 0 8.876 0l40.2-26.8a25.459 25.459 0 0 0 11.363-21.228 30.627 30.627 0 0 0 -52.284-21.656l-3.716 3.716-3.716-3.716a30.627 30.627 0 0 0 -52.284 21.656zm50.343-.97a8 8 0 0 0 11.314 0l9.372-9.373a14.628 14.628 0 0 1 24.971 10.343 9.492 9.492 0 0 1 -4.236 7.915l-35.764 23.843-35.765-23.843a9.493 9.493 0 0 1 -4.235-7.915 14.628 14.628 0 0 1 24.971-10.343z"/><path d="m384 272h16v16h-16z"/><path d="m416 272h16v16h-16z"/><path d="m448 272h16v16h-16z"/><path d="m462.247 195a8 8 0 0 0 -14.247 5v32h-48a48 48 0 0 0 0 96h48a48.055 48.055 0 0 0 48-48v-23.163a56.208 56.208 0 0 0 -12.271-34.983zm17.753 85a32.036 32.036 0 0 1 -32 32h-48a32 32 0 0 1 0-64h56a8 8 0 0 0 8-8v-17.194l7.235 9.044a40.146 40.146 0 0 1 8.765 24.987z"/><path d="m359.769 393.156a103.994 103.994 0 0 0 -207.538 0 173.347 173.347 0 0 1 -57.044-76l-14.954 5.69a189.47 189.47 0 0 0 72.615 90.342 103.99 103.99 0 0 0 206.307-.025 189.208 189.208 0 0 0 60.88-65.245l-13.95-7.834a173.176 173.176 0 0 1 -46.316 53.072zm-159.769 74.712v-3.868a55.969 55.969 0 0 1 32.677-50.915 8 8 0 0 0 2-13.233 32 32 0 1 1 42.645 0 8 8 0 0 0 2 13.233 56.178 56.178 0 0 1 32.678 50.915v3.868a87.952 87.952 0 0 1 -112 0zm126.978-15.868a72.353 72.353 0 0 0 -31.746-48.357 48 48 0 1 0 -78.473-.014 71.952 71.952 0 0 0 -31.747 48.357 88 88 0 1 1 141.966.014z"/><path d="m424.178 219.767 15.644-3.354a188.927 188.927 0 0 0 -82.213-118.6 104 104 0 0 0 -203.217 0 187.526 187.526 0 0 0 -79.633 108.058l15.423 4.258a171.392 171.392 0 0 1 61.831-91.158c0 .343-.013.685-.013 1.029a104 104 0 0 0 208 0c0-.334-.01-.666-.013-1a172.81 172.81 0 0 1 64.191 100.767zm-239.778-48.667a32.177 32.177 0 0 1 19.727-24.825 8 8 0 0 0 1.982-13.709 16 16 0 1 1 19.779 0 8 8 0 0 0 1.982 13.712 31.855 31.855 0 0 1 20.13 29.722v31.633a88.02 88.02 0 0 1 -63.6-36.533zm79.6 36.533v-31.633a31.855 31.855 0 0 1 20.131-29.716 8 8 0 0 0 1.982-13.712 16 16 0 1 1 19.779 0 8 8 0 0 0 1.982 13.709 32.177 32.177 0 0 1 19.726 24.819 88.02 88.02 0 0 1 -63.6 36.533zm73.786-55.154a48.459 48.459 0 0 0 -14.408-15.889 32 32 0 1 0 -54.773-.026 47.672 47.672 0 0 0 -12.605 12.853 47.672 47.672 0 0 0 -12.6-12.853 32 32 0 1 0 -54.773.026 48.459 48.459 0 0 0 -14.408 15.889 88 88 0 1 1 163.572 0z"/></svg>