<svg id="Capa_1" enable-background="new 0 0 512.004 512.004" height="512" viewBox="0 0 512.004 512.004" width="512" xmlns="http://www.w3.org/2000/svg"><g><path d="m42.843 50.408c-6.422 0-11.646 5.225-11.646 11.646v284.949c0 6.422 5.225 11.646 11.646 11.646h426.318c6.422 0 11.646-5.225 11.646-11.646 0-12.676 0-260.121 0-284.949 0-6.422-5.225-11.646-11.646-11.646-17.637 0-408.642 0-426.318 0zm3.353 15h30.035v22.088h-30.035zm208.836 278.241h-19.429v-26.804c0-4.143-3.357-7.5-7.5-7.5s-7.5 3.357-7.5 7.5v26.804h-105.684v-26.804c0-4.143-3.357-7.5-7.5-7.5s-7.5 3.357-7.5 7.5v26.804h-19.43v-26.59c0-13.043 9.156-21.572 15.352-24.153.298-.116 37.497-14.538 37.679-14.608 16.928 20.211 50.229 21.717 68.457.006 19.926 7.717 31.526 12.208 37.708 14.603 7.639 3.179 15.348 12.477 15.348 24.152v26.59zm-24.654-97.793c3.501 1.805 6.703 18.765-3.335 26.069-11.677-4.523-25.654-9.936-31.274-12.112l-.005-6.034c10.363-8.573 15.973-21.15 15.973-33.884v-21.715c0-6.417-5.221-11.638-11.639-11.638-7.792 0-5.037.113-12.69-.54-5.474-.464-10.42-4.804-11.76-10.314-.887-3.655-4.13-6.208-7.886-6.208-3.741 0-6.983 2.541-7.886 6.208-1.258 5.193-5.858 9.816-12.028 10.356-7.578.634-6.636.498-12.424.498-6.418 0-11.639 5.221-11.639 11.638v22.068c0 13.27 6.072 25.59 15.943 33.609v5.945c-4.944 1.916-23.535 9.123-31.276 12.125-10.038-7.294-6.848-24.264-3.341-26.072 7.232-3.73 13.706-9 13.706-17.06v-43.203c0-27.107 21.666-49.439 48.298-49.782 27.258-.367 49.594 21.584 49.594 48.941v44.055c0 8.074 6.396 13.299 13.669 17.05zm-64.365 2.77c-16.14-1.036-27.228-13.724-27.228-28.378v-18.706c11.987 0 21.25-1.311 28.987-9.798 7.92 8.673 17.294 9.798 28.964 9.798v18.353c0 15.863-13.233 29.858-30.723 28.731zm20.777 23.723c-11.582 9.605-28.096 8.163-38.107-.06 4.334-2.339 6.046-5.817 6.046-10.536 8.175 2.454 17.477 2.7 26.042.098.003 5.052 2.318 8.582 6.019 10.498zm279.018 71.301h-195.776v-26.591c0-16.418-10.159-32.064-24.705-38.051-.049-.02-.097-.039-.146-.059-.322-.125-1.4-.542-3.009-1.165 11.145-14.89 7.484-38.865-4.92-45.261-2.624-1.354-4.402-2.605-5.544-3.89v-43.881c0-35.535-28.926-64.373-64.787-63.94-34.796.448-63.104 29.509-63.104 64.781v42.997c-1.176 1.326-2.955 2.58-5.58 3.934-12.454 6.42-16.025 30.439-4.915 45.27-1.814.703-2.91 1.128-2.993 1.161-.045.018-.09.035-.134.054-11.899 4.896-24.707 18.892-24.707 38.051v26.591h-19.292v-241.155h419.611v241.154zm0-256.154h-374.577v-22.088h374.576v22.088z"/><path d="m293.52 149.249h10.193c4.143 0 7.5-3.358 7.5-7.5s-3.357-7.5-7.5-7.5h-10.193c-4.143 0-7.5 3.358-7.5 7.5s3.357 7.5 7.5 7.5z"/><path d="m293.52 180.471h10.193c4.143 0 7.5-3.358 7.5-7.5s-3.357-7.5-7.5-7.5h-10.193c-4.143 0-7.5 3.358-7.5 7.5s3.357 7.5 7.5 7.5z"/><path d="m293.52 211.693h10.193c4.143 0 7.5-3.357 7.5-7.5s-3.357-7.5-7.5-7.5h-10.193c-4.143 0-7.5 3.357-7.5 7.5s3.357 7.5 7.5 7.5z"/><path d="m293.52 242.916h10.193c4.143 0 7.5-3.357 7.5-7.5s-3.357-7.5-7.5-7.5h-10.193c-4.143 0-7.5 3.357-7.5 7.5s3.357 7.5 7.5 7.5z"/><path d="m293.52 273.753h10.193c4.143 0 7.5-3.357 7.5-7.5s-3.357-7.5-7.5-7.5h-10.193c-4.143 0-7.5 3.357-7.5 7.5s3.357 7.5 7.5 7.5z"/><path d="m293.52 304.975h10.193c4.143 0 7.5-3.357 7.5-7.5s-3.357-7.5-7.5-7.5h-10.193c-4.143 0-7.5 3.357-7.5 7.5s3.357 7.5 7.5 7.5z"/><path d="m332.186 149.249h94.194c4.143 0 7.5-3.358 7.5-7.5s-3.357-7.5-7.5-7.5h-94.194c-4.143 0-7.5 3.358-7.5 7.5s3.357 7.5 7.5 7.5z"/><path d="m332.186 180.471h94.194c4.143 0 7.5-3.358 7.5-7.5s-3.357-7.5-7.5-7.5h-94.194c-4.143 0-7.5 3.358-7.5 7.5s3.357 7.5 7.5 7.5z"/><path d="m332.186 211.693h94.194c4.143 0 7.5-3.357 7.5-7.5s-3.357-7.5-7.5-7.5h-94.194c-4.143 0-7.5 3.357-7.5 7.5s3.357 7.5 7.5 7.5z"/><path d="m332.186 242.916h94.194c4.143 0 7.5-3.357 7.5-7.5s-3.357-7.5-7.5-7.5h-94.194c-4.143 0-7.5 3.357-7.5 7.5s3.357 7.5 7.5 7.5z"/><path d="m332.186 273.753h94.194c4.143 0 7.5-3.357 7.5-7.5s-3.357-7.5-7.5-7.5h-94.194c-4.143 0-7.5 3.357-7.5 7.5s3.357 7.5 7.5 7.5z"/><path d="m332.186 304.975h94.194c4.143 0 7.5-3.357 7.5-7.5s-3.357-7.5-7.5-7.5h-94.194c-4.143 0-7.5 3.357-7.5 7.5s3.357 7.5 7.5 7.5z"/><path d="m504.504 206.592c4.143 0 7.5-3.357 7.5-7.5v-143.561c0-20.027-16.293-36.32-36.32-36.32h-439.365c-20.026 0-36.319 16.293-36.319 36.32v297.995c0 20.027 16.293 36.32 36.319 36.32h165.64v21.776c0 9.138-4.397 17.747-11.478 22.47l-18.745 12.504h-14.903c-9.649 0-17.499 7.851-17.499 17.5v11.196c0 9.649 7.85 17.5 17.499 17.5h81.668c4.143 0 7.5-3.357 7.5-7.5s-3.357-7.5-7.5-7.5h-81.668c-1.378 0-2.499-1.121-2.499-2.5v-11.196c0-1.379 1.121-2.5 2.499-2.5h198.335c1.379 0 2.5 1.121 2.5 2.5v11.196c0 1.379-1.121 2.5-2.5 2.5h-81.667c-4.143 0-7.5 3.357-7.5 7.5s3.357 7.5 7.5 7.5h81.667c9.649 0 17.5-7.851 17.5-17.5v-11.196c0-9.649-7.851-17.5-17.5-17.5h-14.902l-18.745-12.504c-7.08-4.723-11.479-13.332-11.479-22.47v-21.776h165.64c20.027 0 36.32-16.293 36.32-36.32v-119.434c0-4.143-3.357-7.5-7.5-7.5s-7.5 3.357-7.5 7.5v119.434c0 11.756-9.564 21.32-21.32 21.32-10.818 0-430.691 0-439.364 0-11.756 0-21.319-9.564-21.319-21.32v-297.995c0-11.756 9.563-21.32 21.319-21.32h439.364c11.756 0 21.32 9.564 21.32 21.32v143.561c.002 4.143 3.359 7.5 7.502 7.5zm-287.545 205.031v-21.776h78.085v21.776c0 14.301 6.787 27.366 18.154 34.948l.038.025h-114.468l.038-.025c11.367-7.582 18.153-20.647 18.153-34.948z"/></g></svg>